<svg width="20" height="20" viewBox="0 0 20 20" fill="none" xmlns="http://www.w3.org/2000/svg">
<path d="M10.4711 5.33203H9.53168C9.44575 5.33203 9.37543 5.40235 9.37543 5.48828V10.8652C9.37543 10.916 9.39887 10.9629 9.43989 10.9922L12.6684 13.3496C12.7387 13.4004 12.8364 13.3867 12.8872 13.3164L13.4457 12.5547C13.4985 12.4824 13.4829 12.3848 13.4125 12.3359L10.6274 10.3223V5.48828C10.6274 5.40235 10.5571 5.33203 10.4711 5.33203ZM14.7641 6.80078L17.8266 7.54883C17.9243 7.57227 18.02 7.49805 18.02 7.39844L18.0356 4.24414C18.0356 4.11328 17.8852 4.03906 17.7836 4.1211L14.7055 6.52539C14.6822 6.54339 14.6645 6.56759 14.6544 6.5952C14.6443 6.62282 14.6422 6.65273 14.6483 6.6815C14.6544 6.71027 14.6685 6.73672 14.689 6.75782C14.7095 6.77893 14.7355 6.79382 14.7641 6.80078V6.80078ZM18.0395 12.6816L16.9321 12.3008C16.8935 12.2875 16.8512 12.2899 16.8143 12.3075C16.7775 12.325 16.7489 12.3562 16.7348 12.3945C16.6977 12.4941 16.6586 12.5918 16.6176 12.6895C16.27 13.5117 15.7719 14.252 15.1352 14.8867C14.5056 15.5183 13.7593 16.0218 12.9379 16.3691C12.087 16.7289 11.1723 16.9136 10.2485 16.9121C9.31489 16.9121 8.41059 16.7305 7.55903 16.3691C6.73762 16.0218 5.99141 15.5183 5.36176 14.8867C4.727 14.252 4.22895 13.5117 3.87934 12.6895C3.52156 11.8381 3.33825 10.9235 3.34028 10C3.34028 9.06641 3.52192 8.16016 3.88325 7.3086C4.2309 6.48633 4.72895 5.7461 5.36567 5.11133C5.99532 4.47973 6.74153 3.97628 7.56293 3.62891C8.41059 3.26758 9.31684 3.08594 10.2504 3.08594C11.184 3.08594 12.0883 3.26758 12.9399 3.62891C13.7613 3.97628 14.5075 4.47973 15.1372 5.11133C15.3364 5.3125 15.5239 5.52149 15.6957 5.74219L16.8637 4.82813C15.3266 2.86328 12.934 1.59961 10.2465 1.60156C5.56684 1.60352 1.80903 5.4043 1.8559 10.0859C1.90278 14.6855 5.64301 18.3984 10.2504 18.3984C13.8735 18.3984 16.9594 16.1016 18.1352 12.8848C18.1645 12.8027 18.1215 12.7109 18.0395 12.6816V12.6816Z" fill="white"/>
</svg>
