<svg width="395" height="450" viewBox="0 0 395 450" fill="none" xmlns="http://www.w3.org/2000/svg">
<g filter="url(#filter0_f)">
<path d="M44 5.5H350.318C371.581 5.5 388.818 22.737 388.818 44V379.733C388.818 384.427 385.012 388.233 380.318 388.233H14C9.30558 388.233 5.5 384.427 5.5 379.733V44C5.5 22.7371 22.737 5.5 44 5.5Z" stroke="url(#paint0_linear)" stroke-width="3"/>
<path d="M44 9.35754H350.318C371.581 9.35754 388.818 26.5946 388.818 47.8575V375.875C388.818 380.57 385.012 384.375 380.318 384.375H14C9.30558 384.375 5.5 380.57 5.5 375.875V47.8576C5.5 26.5946 22.737 9.35754 44 9.35754Z" stroke="url(#paint1_linear)" stroke-width="3"/>
<line x1="4" y1="79.6465" x2="390.318" y2="79.6465" stroke="url(#paint2_linear)" stroke-width="3"/>
<line x1="4" y1="75.7892" x2="390.318" y2="75.7892" stroke="url(#paint3_linear)" stroke-width="3"/>
<line x1="4" y1="349.659" x2="390.318" y2="349.659" stroke="url(#paint4_linear)" stroke-width="3"/>
<line x1="4" y1="353.517" x2="390.318" y2="353.517" stroke="url(#paint5_linear)" stroke-width="3"/>
<line x1="102.511" y1="322.658" x2="291.807" y2="322.658" stroke="url(#paint6_linear)" stroke-width="3"/>
<line x1="102.511" y1="313.015" x2="291.807" y2="313.015" stroke="url(#paint7_linear)" stroke-width="3"/>
<line x1="102.511" y1="303.371" x2="291.807" y2="303.371" stroke="url(#paint8_linear)" stroke-width="3"/>
<line x1="4" y1="272.513" x2="390.318" y2="272.513" stroke="url(#paint9_linear)" stroke-width="3"/>
<line x1="4" y1="276.37" x2="390.318" y2="276.37" stroke="url(#paint10_linear)" stroke-width="3"/>
<line x1="198.659" y1="81.1465" x2="198.659" y2="274.013" stroke="url(#paint11_linear)" stroke-width="3"/>
<line x1="9.36328" y1="81.1465" x2="9.36329" y2="274.013" stroke="url(#paint12_linear)" stroke-width="3"/>
<line x1="386.023" y1="81.1465" x2="386.023" y2="274.013" stroke="url(#paint13_linear)" stroke-width="3"/>
<path d="M24.8159 389.304H79.7636V438.664C79.7636 441.701 77.3012 444.164 74.2636 444.164H30.3159C27.2784 444.164 24.8159 441.701 24.8159 438.664V389.304Z" stroke="url(#paint14_linear)" stroke-width="3"/>
<path d="M314.554 389.304H369.502V438.664C369.502 441.701 367.039 444.164 364.002 444.164H320.054C317.017 444.164 314.554 441.701 314.554 438.664V389.304Z" stroke="url(#paint15_linear)" stroke-width="3"/>
<path d="M70.1054 312.586C70.1054 322.407 62.1311 330.373 52.2895 330.373C42.4479 330.373 34.4736 322.407 34.4736 312.586C34.4736 302.765 42.4479 294.799 52.2895 294.799C62.1311 294.799 70.1054 302.765 70.1054 312.586Z" stroke="url(#paint16_linear)" stroke-width="3"/>
<path d="M359.844 312.586C359.844 322.407 351.87 330.373 342.028 330.373C332.187 330.373 324.212 322.407 324.212 312.586C324.212 302.765 332.187 294.799 342.028 294.799C351.87 294.799 359.844 302.765 359.844 312.586Z" stroke="url(#paint17_linear)" stroke-width="3"/>
<path d="M355.981 312.586C355.981 320.277 349.736 326.515 342.028 326.515C334.32 326.515 328.076 320.277 328.076 312.586C328.076 304.895 334.32 298.657 342.028 298.657C349.736 298.657 355.981 304.895 355.981 312.586Z" stroke="url(#paint18_linear)" stroke-width="3"/>
<path d="M66.2423 312.586C66.2423 320.277 59.9976 326.515 52.2896 326.515C44.5816 326.515 38.3369 320.277 38.3369 312.586C38.3369 304.895 44.5816 298.657 52.2896 298.657C59.9976 298.657 66.2423 304.895 66.2423 312.586Z" stroke="url(#paint19_linear)" stroke-width="3"/>
<rect x="102.08" y="294.799" width="190.159" height="35.5733" rx="3.5" stroke="url(#paint20_linear)" stroke-width="3"/>
</g>
<path d="M44 4.5H350.318C372.133 4.5 389.818 22.1848 389.818 44V379.733C389.818 384.979 385.565 389.233 380.318 389.233H14C8.75329 389.233 4.5 384.979 4.5 379.733V44C4.5 22.1848 22.1848 4.5 44 4.5Z" stroke="url(#paint21_linear)"/>
<path d="M44 8.35754H350.318C372.133 8.35754 389.818 26.0423 389.818 47.8575V375.875C389.818 381.122 385.565 385.375 380.318 385.375H14C8.75329 385.375 4.5 381.122 4.5 375.875V47.8576C4.5 26.0423 22.1848 8.35754 44 8.35754Z" stroke="url(#paint22_linear)"/>
<line x1="4" y1="80.6465" x2="390.318" y2="80.6465" stroke="url(#paint23_linear)"/>
<line x1="4" y1="76.7892" x2="390.318" y2="76.7892" stroke="url(#paint24_linear)"/>
<line x1="4" y1="350.659" x2="390.318" y2="350.659" stroke="url(#paint25_linear)"/>
<line x1="4" y1="354.517" x2="390.318" y2="354.517" stroke="url(#paint26_linear)"/>
<line x1="102.511" y1="323.658" x2="291.807" y2="323.658" stroke="url(#paint27_linear)"/>
<line x1="102.511" y1="314.015" x2="291.807" y2="314.015" stroke="url(#paint28_linear)"/>
<line x1="102.511" y1="304.371" x2="291.807" y2="304.371" stroke="url(#paint29_linear)"/>
<line x1="4" y1="273.513" x2="390.318" y2="273.513" stroke="url(#paint30_linear)"/>
<line x1="4" y1="277.37" x2="390.318" y2="277.37" stroke="url(#paint31_linear)"/>
<line x1="197.659" y1="81.1465" x2="197.659" y2="274.013" stroke="url(#paint32_linear)"/>
<line x1="8.36328" y1="81.1465" x2="8.36329" y2="274.013" stroke="url(#paint33_linear)"/>
<line x1="385.023" y1="81.1465" x2="385.023" y2="274.013" stroke="url(#paint34_linear)"/>
<path d="M23.8159 388.304H80.7636V438.664C80.7636 442.254 77.8535 445.164 74.2636 445.164H30.3159C26.7261 445.164 23.8159 442.254 23.8159 438.664V388.304Z" stroke="url(#paint35_linear)"/>
<path d="M313.554 388.304H370.502V438.664C370.502 442.254 367.592 445.164 364.002 445.164H320.054C316.464 445.164 313.554 442.254 313.554 438.664V388.304Z" stroke="url(#paint36_linear)"/>
<path d="M71.1054 312.586C71.1054 322.961 62.682 331.373 52.2895 331.373C41.8971 331.373 33.4736 322.961 33.4736 312.586C33.4736 302.211 41.8971 293.799 52.2895 293.799C62.682 293.799 71.1054 302.211 71.1054 312.586Z" stroke="url(#paint37_linear)"/>
<path d="M360.844 312.586C360.844 322.961 352.421 331.373 342.028 331.373C331.636 331.373 323.212 322.961 323.212 312.586C323.212 302.211 331.636 293.799 342.028 293.799C352.421 293.799 360.844 302.211 360.844 312.586Z" stroke="url(#paint38_linear)"/>
<path d="M356.981 312.586C356.981 320.831 350.287 327.515 342.028 327.515C333.77 327.515 327.076 320.831 327.076 312.586C327.076 304.342 333.77 297.657 342.028 297.657C350.287 297.657 356.981 304.342 356.981 312.586Z" stroke="url(#paint39_linear)"/>
<path d="M67.2423 312.586C67.2423 320.831 60.5485 327.515 52.2896 327.515C44.0308 327.515 37.3369 320.831 37.3369 312.586C37.3369 304.342 44.0308 297.657 52.2896 297.657C60.5485 297.657 67.2423 304.342 67.2423 312.586Z" stroke="url(#paint40_linear)"/>
<rect x="101.08" y="293.799" width="192.159" height="37.5733" rx="4.5" stroke="url(#paint41_linear)"/>
<defs>
<filter id="filter0_f" x="0" y="0" width="394.318" height="449.664" filterUnits="userSpaceOnUse" color-interpolation-filters="sRGB">
<feFlood flood-opacity="0" result="BackgroundImageFix"/>
<feBlend mode="normal" in="SourceGraphic" in2="BackgroundImageFix" result="shape"/>
<feGaussianBlur stdDeviation="2" result="effect1_foregroundBlur"/>
</filter>
<linearGradient id="paint0_linear" x1="4" y1="196.866" x2="390.318" y2="196.866" gradientUnits="userSpaceOnUse">
<stop stop-color="#F77C7C"/>
<stop offset="1" stop-color="#FFF48E"/>
</linearGradient>
<linearGradient id="paint1_linear" x1="4" y1="196.867" x2="390.318" y2="196.867" gradientUnits="userSpaceOnUse">
<stop stop-color="#F77C7C"/>
<stop offset="1" stop-color="#FFF48E"/>
</linearGradient>
<linearGradient id="paint2_linear" x1="4" y1="81.6465" x2="390.318" y2="81.646" gradientUnits="userSpaceOnUse">
<stop stop-color="#F77C7C"/>
<stop offset="1" stop-color="#FFF48E"/>
</linearGradient>
<linearGradient id="paint3_linear" x1="4" y1="77.7892" x2="390.318" y2="77.7887" gradientUnits="userSpaceOnUse">
<stop stop-color="#F77C7C"/>
<stop offset="1" stop-color="#FFF48E"/>
</linearGradient>
<linearGradient id="paint4_linear" x1="4" y1="351.659" x2="390.318" y2="351.659" gradientUnits="userSpaceOnUse">
<stop stop-color="#F77C7C"/>
<stop offset="1" stop-color="#FFF48E"/>
</linearGradient>
<linearGradient id="paint5_linear" x1="4" y1="355.517" x2="390.318" y2="355.516" gradientUnits="userSpaceOnUse">
<stop stop-color="#F77C7C"/>
<stop offset="1" stop-color="#FFF48E"/>
</linearGradient>
<linearGradient id="paint6_linear" x1="102.511" y1="324.658" x2="291.807" y2="324.658" gradientUnits="userSpaceOnUse">
<stop stop-color="#F77C7C"/>
<stop offset="1" stop-color="#FFF48E"/>
</linearGradient>
<linearGradient id="paint7_linear" x1="102.511" y1="315.015" x2="291.807" y2="315.015" gradientUnits="userSpaceOnUse">
<stop stop-color="#F77C7C"/>
<stop offset="1" stop-color="#FFF48E"/>
</linearGradient>
<linearGradient id="paint8_linear" x1="102.511" y1="305.371" x2="291.807" y2="305.371" gradientUnits="userSpaceOnUse">
<stop stop-color="#F77C7C"/>
<stop offset="1" stop-color="#FFF48E"/>
</linearGradient>
<linearGradient id="paint9_linear" x1="4" y1="274.513" x2="390.318" y2="274.512" gradientUnits="userSpaceOnUse">
<stop stop-color="#F77C7C"/>
<stop offset="1" stop-color="#FFF48E"/>
</linearGradient>
<linearGradient id="paint10_linear" x1="4" y1="278.37" x2="390.318" y2="278.37" gradientUnits="userSpaceOnUse">
<stop stop-color="#F77C7C"/>
<stop offset="1" stop-color="#FFF48E"/>
</linearGradient>
<linearGradient id="paint11_linear" x1="196.659" y1="81.1465" x2="196.659" y2="274.013" gradientUnits="userSpaceOnUse">
<stop stop-color="#F77C7C"/>
<stop offset="1" stop-color="#FFF48E"/>
</linearGradient>
<linearGradient id="paint12_linear" x1="7.36328" y1="81.1465" x2="7.3634" y2="274.013" gradientUnits="userSpaceOnUse">
<stop stop-color="#F77C7C"/>
<stop offset="1" stop-color="#FFF48E"/>
</linearGradient>
<linearGradient id="paint13_linear" x1="384.023" y1="81.1465" x2="384.023" y2="274.013" gradientUnits="userSpaceOnUse">
<stop stop-color="#F77C7C"/>
<stop offset="1" stop-color="#FFF48E"/>
</linearGradient>
<linearGradient id="paint14_linear" x1="23.3159" y1="416.734" x2="81.2636" y2="416.734" gradientUnits="userSpaceOnUse">
<stop stop-color="#F77C7C"/>
<stop offset="1" stop-color="#FFF48E"/>
</linearGradient>
<linearGradient id="paint15_linear" x1="313.054" y1="416.734" x2="371.002" y2="416.734" gradientUnits="userSpaceOnUse">
<stop stop-color="#F77C7C"/>
<stop offset="1" stop-color="#FFF48E"/>
</linearGradient>
<linearGradient id="paint16_linear" x1="32.9736" y1="312.586" x2="71.6054" y2="312.586" gradientUnits="userSpaceOnUse">
<stop stop-color="#F77C7C"/>
<stop offset="1" stop-color="#FFF48E"/>
</linearGradient>
<linearGradient id="paint17_linear" x1="322.712" y1="312.586" x2="361.344" y2="312.586" gradientUnits="userSpaceOnUse">
<stop stop-color="#F77C7C"/>
<stop offset="1" stop-color="#FFF48E"/>
</linearGradient>
<linearGradient id="paint18_linear" x1="326.576" y1="312.586" x2="357.481" y2="312.586" gradientUnits="userSpaceOnUse">
<stop stop-color="#F77C7C"/>
<stop offset="1" stop-color="#FFF48E"/>
</linearGradient>
<linearGradient id="paint19_linear" x1="36.8369" y1="312.586" x2="67.7423" y2="312.586" gradientUnits="userSpaceOnUse">
<stop stop-color="#F77C7C"/>
<stop offset="1" stop-color="#FFF48E"/>
</linearGradient>
<linearGradient id="paint20_linear" x1="100.58" y1="312.586" x2="293.739" y2="312.586" gradientUnits="userSpaceOnUse">
<stop stop-color="#F77C7C"/>
<stop offset="1" stop-color="#FFF48E"/>
</linearGradient>
<linearGradient id="paint21_linear" x1="4" y1="196.866" x2="390.318" y2="196.866" gradientUnits="userSpaceOnUse">
<stop stop-color="#F77C7C"/>
<stop offset="1" stop-color="#FFF48E"/>
</linearGradient>
<linearGradient id="paint22_linear" x1="4" y1="196.867" x2="390.318" y2="196.867" gradientUnits="userSpaceOnUse">
<stop stop-color="#F77C7C"/>
<stop offset="1" stop-color="#FFF48E"/>
</linearGradient>
<linearGradient id="paint23_linear" x1="4" y1="81.6465" x2="390.318" y2="81.646" gradientUnits="userSpaceOnUse">
<stop stop-color="#F77C7C"/>
<stop offset="1" stop-color="#FFF48E"/>
</linearGradient>
<linearGradient id="paint24_linear" x1="4" y1="77.7892" x2="390.318" y2="77.7887" gradientUnits="userSpaceOnUse">
<stop stop-color="#F77C7C"/>
<stop offset="1" stop-color="#FFF48E"/>
</linearGradient>
<linearGradient id="paint25_linear" x1="4" y1="351.659" x2="390.318" y2="351.659" gradientUnits="userSpaceOnUse">
<stop stop-color="#F77C7C"/>
<stop offset="1" stop-color="#FFF48E"/>
</linearGradient>
<linearGradient id="paint26_linear" x1="4" y1="355.517" x2="390.318" y2="355.516" gradientUnits="userSpaceOnUse">
<stop stop-color="#F77C7C"/>
<stop offset="1" stop-color="#FFF48E"/>
</linearGradient>
<linearGradient id="paint27_linear" x1="102.511" y1="324.658" x2="291.807" y2="324.658" gradientUnits="userSpaceOnUse">
<stop stop-color="#F77C7C"/>
<stop offset="1" stop-color="#FFF48E"/>
</linearGradient>
<linearGradient id="paint28_linear" x1="102.511" y1="315.015" x2="291.807" y2="315.015" gradientUnits="userSpaceOnUse">
<stop stop-color="#F77C7C"/>
<stop offset="1" stop-color="#FFF48E"/>
</linearGradient>
<linearGradient id="paint29_linear" x1="102.511" y1="305.371" x2="291.807" y2="305.371" gradientUnits="userSpaceOnUse">
<stop stop-color="#F77C7C"/>
<stop offset="1" stop-color="#FFF48E"/>
</linearGradient>
<linearGradient id="paint30_linear" x1="4" y1="274.513" x2="390.318" y2="274.512" gradientUnits="userSpaceOnUse">
<stop stop-color="#F77C7C"/>
<stop offset="1" stop-color="#FFF48E"/>
</linearGradient>
<linearGradient id="paint31_linear" x1="4" y1="278.37" x2="390.318" y2="278.37" gradientUnits="userSpaceOnUse">
<stop stop-color="#F77C7C"/>
<stop offset="1" stop-color="#FFF48E"/>
</linearGradient>
<linearGradient id="paint32_linear" x1="196.659" y1="81.1465" x2="196.659" y2="274.013" gradientUnits="userSpaceOnUse">
<stop stop-color="#F77C7C"/>
<stop offset="1" stop-color="#FFF48E"/>
</linearGradient>
<linearGradient id="paint33_linear" x1="7.36328" y1="81.1465" x2="7.3634" y2="274.013" gradientUnits="userSpaceOnUse">
<stop stop-color="#F77C7C"/>
<stop offset="1" stop-color="#FFF48E"/>
</linearGradient>
<linearGradient id="paint34_linear" x1="384.023" y1="81.1465" x2="384.023" y2="274.013" gradientUnits="userSpaceOnUse">
<stop stop-color="#F77C7C"/>
<stop offset="1" stop-color="#FFF48E"/>
</linearGradient>
<linearGradient id="paint35_linear" x1="23.3159" y1="416.734" x2="81.2636" y2="416.734" gradientUnits="userSpaceOnUse">
<stop stop-color="#F77C7C"/>
<stop offset="1" stop-color="#FFF48E"/>
</linearGradient>
<linearGradient id="paint36_linear" x1="313.054" y1="416.734" x2="371.002" y2="416.734" gradientUnits="userSpaceOnUse">
<stop stop-color="#F77C7C"/>
<stop offset="1" stop-color="#FFF48E"/>
</linearGradient>
<linearGradient id="paint37_linear" x1="32.9736" y1="312.586" x2="71.6054" y2="312.586" gradientUnits="userSpaceOnUse">
<stop stop-color="#F77C7C"/>
<stop offset="1" stop-color="#FFF48E"/>
</linearGradient>
<linearGradient id="paint38_linear" x1="322.712" y1="312.586" x2="361.344" y2="312.586" gradientUnits="userSpaceOnUse">
<stop stop-color="#F77C7C"/>
<stop offset="1" stop-color="#FFF48E"/>
</linearGradient>
<linearGradient id="paint39_linear" x1="326.576" y1="312.586" x2="357.481" y2="312.586" gradientUnits="userSpaceOnUse">
<stop stop-color="#F77C7C"/>
<stop offset="1" stop-color="#FFF48E"/>
</linearGradient>
<linearGradient id="paint40_linear" x1="36.8369" y1="312.586" x2="67.7423" y2="312.586" gradientUnits="userSpaceOnUse">
<stop stop-color="#F77C7C"/>
<stop offset="1" stop-color="#FFF48E"/>
</linearGradient>
<linearGradient id="paint41_linear" x1="100.58" y1="312.586" x2="293.739" y2="312.586" gradientUnits="userSpaceOnUse">
<stop stop-color="#F77C7C"/>
<stop offset="1" stop-color="#FFF48E"/>
</linearGradient>
</defs>
</svg>
