<svg width="20" height="20" viewBox="0 0 20 20" fill="none" xmlns="http://www.w3.org/2000/svg">
<path d="M10.0003 13.3334C11.8413 13.3334 13.3337 11.841 13.3337 10C13.3337 8.15907 11.8413 6.66669 10.0003 6.66669C8.15938 6.66669 6.66699 8.15907 6.66699 10C6.66699 11.841 8.15938 13.3334 10.0003 13.3334Z" fill="white"/>
<path d="M10.8337 3.39085V1.66669H9.16699V3.39085C7.70057 3.57809 6.3378 4.24683 5.29247 5.29216C4.24714 6.33749 3.57839 7.70027 3.39116 9.16669H1.66699V10.8334H3.39116C3.57812 12.2999 4.24677 13.6628 5.29216 14.7082C6.33754 15.7536 7.70047 16.4222 9.16699 16.6092V18.3334H10.8337V16.6092C12.3002 16.4224 13.6632 15.7538 14.7087 14.7083C15.7541 13.6629 16.4227 12.2999 16.6095 10.8334H18.3337V9.16669H16.6095C16.4225 7.70016 15.7539 6.33723 14.7085 5.29185C13.6631 4.24647 12.3002 3.57781 10.8337 3.39085V3.39085ZM10.0003 15C7.24283 15 5.00033 12.7575 5.00033 10C5.00033 7.24252 7.24283 5.00002 10.0003 5.00002C12.7578 5.00002 15.0003 7.24252 15.0003 10C15.0003 12.7575 12.7578 15 10.0003 15Z" fill="white"/>
</svg>
