<svg width="36" height="36" viewBox="0 0 36 36" fill="none" xmlns="http://www.w3.org/2000/svg">
<path d="M22.7692 24.0971L25.278 21.5843C25.6159 21.25 26.0435 21.0212 26.5087 20.9256C26.9739 20.83 27.4568 20.8718 27.8988 21.0458L30.9564 22.2686C31.4031 22.4502 31.7861 22.7601 32.0572 23.1594C32.3282 23.5587 32.4752 24.0294 32.4796 24.5122V30.1212C32.477 30.4497 32.4081 30.7742 32.277 31.0753C32.1459 31.3763 31.9553 31.6477 31.7167 31.873C31.4781 32.0984 31.1965 32.273 30.8888 32.3865C30.581 32.4999 30.2535 32.5498 29.926 32.5331C8.50044 31.1982 4.17724 13.0249 3.35964 6.06964C3.32169 5.72809 3.35637 5.38236 3.46139 5.05519C3.56642 4.72803 3.73941 4.42685 3.969 4.17146C4.19858 3.91607 4.47955 3.71227 4.79342 3.57346C5.10729 3.43464 5.44694 3.36396 5.79004 3.36607H11.1996C11.6824 3.3675 12.1536 3.51356 12.5528 3.78544C12.952 4.05732 13.2609 4.44261 13.4396 4.89174L14.6604 7.95428C14.8399 8.39523 14.8857 8.87937 14.7921 9.34623C14.6985 9.8131 14.4696 10.242 14.134 10.5793L11.6252 13.0922C11.6252 13.0922 13.07 22.8856 22.7692 24.0971Z" fill="black"/>
</svg>
