<svg width="20" height="20" viewBox="0 0 20 20" fill="none" xmlns="http://www.w3.org/2000/svg">
<path d="M10.0309 8C11.701 8 13 6.63918 13 4.96907C13 3.29897 11.6392 2 9.96907 2C8.29897 2 7 3.36082 7 4.96907C7 6.63918 8.36082 8 10.0309 8ZM9.96907 3.23711C10.0309 3.23711 10.0309 3.23711 9.96907 3.23711C10.9588 3.23711 11.7629 4.04124 11.7629 5.03093C11.7629 6.02062 10.9588 6.76289 9.96907 6.76289C8.97938 6.76289 8.23711 5.95876 8.23711 5.03093C8.23711 4.04124 9.04124 3.23711 9.96907 3.23711V3.23711Z" fill="white"/>
<path d="M19.8 7.62412C18.5333 6.52303 16.8667 5.9401 15.1333 6.00487H14.6C14.4667 6.52303 14.2667 6.97642 14 7.36504C14.4 7.30027 14.7333 7.30027 15.1333 7.30027C16.4 7.2355 17.6667 7.62412 18.6667 8.33658V13H20V7.81843L19.8 7.62412Z" fill="white"/>
<path d="M13.8537 2.35955C14.1585 1.55056 15.0122 1.14607 15.8049 1.48315C16.5366 1.82022 16.9024 2.76404 16.5976 3.64045C16.3537 4.24719 15.8049 4.65169 15.2561 4.65169C15.1341 4.65169 14.9512 4.65169 14.8293 4.58427C14.8902 4.92135 14.8902 5.25843 14.8902 5.52809V5.93258C15.0122 5.93258 15.1341 6 15.2561 6C16.7805 6 18 4.65169 18 3.03371C18 1.34831 16.7805 0 15.3171 0C14.3415 0 13.4878 0.539326 13 1.48315C13.3049 1.68539 13.6098 1.95506 13.8537 2.35955V2.35955Z" fill="white"/>
<path d="M6 7.37779C5.73333 6.98555 5.53333 6.52792 5.4 6.00493H4.86667C3.13333 5.93955 1.46667 6.52792 0.2 7.57392L0 7.77004V13H1.33333V8.29303C2.4 7.57392 3.6 7.18167 4.86667 7.24704C5.26667 7.24704 5.66667 7.31242 6 7.37779Z" fill="white"/>
<path d="M5.23838 6C5.38373 6 5.52907 6 5.67442 5.93225V5.52575C5.67442 5.18699 5.67442 4.84824 5.7471 4.57724C5.60175 4.64499 5.38373 4.64499 5.23838 4.64499C4.29361 4.64499 3.4942 3.89973 3.4942 3.01898C3.4942 2.13822 4.29361 1.39296 5.23838 1.39296C5.96512 1.39296 6.61919 1.79947 6.90989 2.40922C7.20058 2.07047 7.63663 1.73172 8 1.46071C7.05523 0.0379532 5.09303 -0.436301 3.56687 0.444456C2.04071 1.32521 1.53199 3.15448 2.47676 4.57724C3.05815 5.458 4.07559 6 5.23838 6V6Z" fill="white"/>
<path d="M14.9383 11.5642L14.8148 11.3566C13.5802 9.83415 11.8519 8.93452 10 9.00372C8.14815 8.93452 6.35802 9.83415 5.12346 11.3566L5 11.5642V16.8236C5 17.4464 5.4321 18 6.04938 18H13.9506C14.5062 18 15 17.4464 15 16.8236V11.5642H14.9383ZM13.7037 16.616H6.23457V12.0486C7.22222 10.9414 8.58025 10.3878 10 10.3878C11.358 10.3186 12.716 10.9414 13.7037 12.0486V16.616Z" fill="white"/>
</svg>
