<svg width="18" height="18" viewBox="0 0 18 18" fill="none" xmlns="http://www.w3.org/2000/svg">
<path d="M8.95 8.65005C10.3 8.65005 11.35 7.55005 11.35 6.20005C11.35 4.85005 10.25 3.80005 8.9 3.80005C7.55 3.80005 6.5 4.90005 6.5 6.20005C6.5 7.55005 7.6 8.65005 8.95 8.65005ZM8.9 4.80005C8.95 4.80005 8.95 4.80005 8.9 4.80005C9.7 4.80005 10.35 5.45005 10.35 6.25005C10.35 7.05005 9.7 7.65005 8.9 7.65005C8.1 7.65005 7.5 7.00005 7.5 6.25005C7.5 5.45005 8.15 4.80005 8.9 4.80005V4.80005Z" fill="white"/>
<path d="M16.35 8.34995C15.4 7.49995 14.15 7.04995 12.85 7.09995H12.45C12.35 7.49995 12.2 7.84995 12 8.14995C12.3 8.09995 12.55 8.09995 12.85 8.09995C13.8 8.04995 14.75 8.34995 15.5 8.89995V12.5H16.5V8.49995L16.35 8.34995Z" fill="white"/>
<path d="M11.7 3.90002C11.95 3.30002 12.65 3.00002 13.3 3.25002C13.9 3.50002 14.2 4.20002 13.95 4.85002C13.75 5.30002 13.3 5.60002 12.85 5.60002C12.75 5.60002 12.6 5.60002 12.5 5.55002C12.55 5.80002 12.55 6.05002 12.55 6.25002V6.55002C12.65 6.55002 12.75 6.60002 12.85 6.60002C14.1 6.60002 15.1 5.60002 15.1 4.40002C15.1 3.15002 14.1 2.15002 12.9 2.15002C12.1 2.15002 11.4 2.55002 11 3.25002C11.25 3.40002 11.5 3.60002 11.7 3.90002V3.90002Z" fill="white"/>
<path d="M6 8.20001C5.8 7.90001 5.65 7.55001 5.55 7.15001H5.15C3.85 7.10001 2.6 7.55001 1.65 8.35001L1.5 8.50001V12.5H2.5V8.90001C3.3 8.35001 4.2 8.05001 5.15 8.10001C5.45 8.10001 5.75 8.15001 6 8.20001Z" fill="white"/>
<path d="M5.14988 6.54996C5.24988 6.54996 5.34988 6.54996 5.44988 6.49996V6.19996C5.44988 5.94996 5.44988 5.69996 5.49988 5.49996C5.39988 5.54996 5.24988 5.54996 5.14988 5.54996C4.49988 5.54996 3.94988 4.99996 3.94988 4.34996C3.94988 3.69996 4.49988 3.14996 5.14988 3.14996C5.64988 3.14996 6.09988 3.44996 6.29988 3.89996C6.49988 3.64996 6.79988 3.39996 7.04988 3.19996C6.39988 2.14996 5.04988 1.79996 3.99988 2.44996C2.94988 3.09996 2.59988 4.44996 3.24988 5.49996C3.64988 6.14996 4.34988 6.54996 5.14988 6.54996V6.54996Z" fill="white"/>
<path d="M13.05 11.35L12.95 11.2C11.95 10.1 10.55 9.45 9.05 9.5C7.55 9.45 6.1 10.1 5.1 11.2L5 11.35V15.15C5 15.6 5.35 16 5.85 16H12.25C12.7 16 13.1 15.6 13.1 15.15V11.35H13.05ZM12.05 15H6V11.7C6.8 10.9 7.9 10.5 9.05 10.5C10.15 10.45 11.25 10.9 12.05 11.7V15Z" fill="white"/>
</svg>
