<svg width="36" height="36" viewBox="0 0 36 36" fill="none" xmlns="http://www.w3.org/2000/svg">
<path d="M32.5625 15.0201H31.3597V14.958H17.9197V20.941H26.3592C25.128 24.4238 21.8195 26.924 17.9197 26.924C12.9715 26.924 8.95966 22.9056 8.95966 17.9495C8.95966 12.9933 12.9715 8.97499 17.9197 8.97499C20.2037 8.97499 22.2817 9.83804 23.8639 11.2478L28.0878 7.01706C25.4207 4.52739 21.8531 2.992 17.9197 2.992C9.67273 2.992 2.98633 9.68921 2.98633 17.9495C2.98633 26.2097 9.67273 32.9069 17.9197 32.9069C26.1666 32.9069 32.853 26.2097 32.853 17.9495C32.853 16.9466 32.75 15.9676 32.5625 15.0201Z" fill="#FFC107"/>
<path d="M4.70801 10.9875L9.61435 14.5915C10.9419 11.2994 14.1571 8.97499 17.9195 8.97499C20.2036 8.97499 22.2816 9.83804 23.8637 11.2478L28.0876 7.01706C25.4205 4.52739 21.853 2.992 17.9195 2.992C12.1836 2.992 7.20934 6.23553 4.70801 10.9875Z" fill="#FF3D00"/>
<path d="M17.9204 32.9064C21.7777 32.9064 25.2825 31.4278 27.9324 29.0234L23.3106 25.106C21.7609 26.2865 19.8673 26.9249 17.9204 26.9234C14.0362 26.9234 10.7382 24.4427 9.49574 20.9808L4.62598 24.7388C7.09744 29.5828 12.1165 32.9064 17.9204 32.9064Z" fill="#4CAF50"/>
<path d="M32.5628 15.0196H31.3599V14.9575H17.9199V20.9405H26.3595C25.7705 22.5981 24.7096 24.0466 23.3079 25.1069L23.3101 25.1054L27.932 29.0228C27.6049 29.3204 32.8533 25.4277 32.8533 17.949C32.8533 16.9461 32.7502 15.9671 32.5628 15.0196Z" fill="#1976D2"/>
</svg>
