<svg width="40" height="40" viewBox="0 0 40 40" fill="none" xmlns="http://www.w3.org/2000/svg">
<path d="M11.25 5C8.5 5 6.25 7.25 6.25 10V16.25H3.75V20H6.25V33.75C6.25 34.4375 6.8125 35 7.5 35H11.25L11.68 33.75H28.32L28.75 35H32.5C33.1875 35 33.75 34.4375 33.75 33.75V20H36.25V16.25H33.75V10C33.75 7.25 31.5 5 28.75 5H11.25ZM11.25 7.5H28.75C30.1462 7.5 31.25 8.60375 31.25 10H8.75C8.75 8.60375 9.85375 7.5 11.25 7.5ZM8.75 12.5H18.75V21.25H8.75V12.5ZM21.25 12.5H31.25V21.25H21.25V12.5ZM8.75 23.75H31.25V31.25H8.75V23.75ZM10 26.25V28.75H15V26.25H10ZM25 26.25V28.75H30V26.25H25Z" fill="white"/>
</svg>
