<svg width="60" height="60" viewBox="0 0 60 60" fill="none" xmlns="http://www.w3.org/2000/svg">
<path d="M16.875 7.5C12.75 7.5 9.375 10.875 9.375 15V24.375H5.625V30H9.375V50.625C9.375 51.6563 10.2187 52.5 11.25 52.5H16.875L17.52 50.625H42.48L43.125 52.5H48.75C49.7813 52.5 50.625 51.6563 50.625 50.625V30H54.375V24.375H50.625V15C50.625 10.875 47.25 7.5 43.125 7.5H16.875ZM16.875 11.25H43.125C45.2194 11.25 46.875 12.9056 46.875 15H13.125C13.125 12.9056 14.7806 11.25 16.875 11.25ZM13.125 18.75H28.125V31.875H13.125V18.75ZM31.875 18.75H46.875V31.875H31.875V18.75ZM13.125 35.625H46.875V46.875H13.125V35.625ZM15 39.375V43.125H22.5V39.375H15ZM37.5 39.375V43.125H45V39.375H37.5Z" fill="black"/>
</svg>
