<svg width="20" height="20" viewBox="0 0 20 20" fill="none" xmlns="http://www.w3.org/2000/svg">
<path d="M17.2285 0.210327H2.67414C1.24789 0.210327 0.0878906 1.37064 0.0878906 2.7972V17.3494C0.0878906 18.776 1.2482 19.9366 2.67414 19.9366H17.2285C18.6548 19.9366 19.8148 18.7763 19.8148 17.3494V2.7972C19.8148 1.37095 18.6548 0.210327 17.2285 0.210327V0.210327ZM9.94289 2.48064C10.816 2.48064 12.246 2.84783 13.0435 3.71908L11.9701 5.77908C11.7312 5.46883 11.4241 5.21767 11.0727 5.04498C10.7212 4.87229 10.3348 4.7827 9.9432 4.78314C9.55612 4.78269 9.174 4.87029 8.82577 5.03932C8.47754 5.20834 8.17232 5.45436 7.9332 5.75876L6.83883 3.76501C7.76039 2.84376 9.03227 2.48064 9.9432 2.48064H9.94289ZM11.9101 7.26314C11.9097 7.78534 11.7019 8.286 11.3324 8.65502C10.9629 9.02404 10.462 9.2312 9.93977 9.23095C9.41787 9.23095 8.91735 9.02363 8.54831 8.65459C8.17928 8.28556 7.97195 7.78504 7.97195 7.26314C7.97195 6.74124 8.17928 6.24072 8.54831 5.87169C8.91735 5.50265 9.41787 5.29533 9.93977 5.29533C10.462 5.29508 10.9629 5.50224 11.3324 5.87126C11.7019 6.24028 11.9097 6.74094 11.9101 7.26314V7.26314ZM6.10758 11.4966C6.28633 10.8719 7.07602 9.76408 8.44195 9.75751L11.512 9.76033C12.8473 9.79314 13.621 10.8794 13.7976 11.4969L14.9273 15.235H13.272L12.551 12.7678H12.0466L12.7632 15.235H7.1382L7.85789 12.7678H7.35383L6.63445 15.235H4.9557L6.10727 11.4966H6.10758ZM17.3035 17.4225H2.57883V16.0216H17.3032V17.4225H17.3035Z" fill="white"/>
</svg>
