<svg width="20" height="20" viewBox="0 0 20 20" fill="none" xmlns="http://www.w3.org/2000/svg">
<g clip-path="url(#clip0)">
<path d="M9.56522 1.73914C8.26087 1.73914 7.24185 2.21921 6.50815 3.17935C5.77446 4.1395 5.40761 5.36685 5.40761 6.86142C5.39855 8.7183 5.99638 10.1902 7.20109 11.2772C7.35507 11.4221 7.40942 11.6078 7.36413 11.8342L7.05163 12.4864C6.95199 12.7038 6.8048 12.8736 6.61005 12.9959C6.41531 13.1182 6.00543 13.2926 5.38043 13.519C5.35326 13.5281 4.78034 13.7138 3.66168 14.0761C2.54303 14.4384 1.94746 14.6377 1.875 14.6739C1.11413 14.9909 0.615942 15.3216 0.380435 15.6658C0.126812 16.2364 0 17.6812 0 20H19.1304C19.1304 17.6812 19.0036 16.2364 18.75 15.6658C18.5145 15.3216 18.0163 14.9909 17.2554 14.6739C17.183 14.6377 16.5874 14.4384 15.4687 14.0761C14.3501 13.7138 13.7772 13.5281 13.75 13.519C13.125 13.2926 12.7151 13.1182 12.5204 12.9959C12.3256 12.8736 12.1784 12.7038 12.0788 12.4864L11.7663 11.8342C11.721 11.6078 11.7754 11.4221 11.9293 11.2772C13.1341 10.1902 13.7319 8.7183 13.7228 6.86142C13.7228 5.36685 13.356 4.1395 12.6223 3.17935C11.8886 2.21921 10.8696 1.73914 9.56522 1.73914Z" fill="white"/>
</g>
<defs>
<clipPath id="clip0">
<rect width="19.1304" height="20" fill="white"/>
</clipPath>
</defs>
</svg>
